{"title":"Real.Steel.2011.DVDRip.XViD-FURiES","uid":6948767,"size":2303608752,"categoryP":"video","categoryS":"movies","magnet":"?xt=urn:btih:dc5c5e9ebae0e947072ae542f6f919146fe81ac2&amp;dn=Real.Steel.2011.DVDRip.XViD-FURiES&amp;tr=udp%3A%2F%2Ftracker.openbittorrent.com%3A80&amp;tr=udp%3A%2F%2Fopen.demonii.com%3A1337&amp;tr=udp%3A%2F%2Ftracker.coppersurfer.tk%3A6969&amp;tr=udp%3A%2F%2Fexodus.desync.com%3A6969","seeders":0,"leechers":1,"uploader":"TvTeam","files":4,"time":1326324116,"description":". \n &lt;a href=&quot;\nhttp://www.torrenting.com&quot; rel=&quot;nofollow&quot; target=&quot;_NEW&quot;&gt;\nhttp://www.torrenting.com&lt;/a&gt;          :     Once &amp; For all ;)\n\n\n               www . Torrenting . Com \n\n(((((((((((((= Enjoy No RAR releases =))))))))))))))))))))\n\n\n...................................NFO:....................................\n\n.+-----------------------------------------------------------------------------+\n+----------------------------------FUSiON-------------------------------------+\n+-----------------------------------------------------------------------------+\n+-----------------------------------------------------------------------------+\nPLOT :------------------------------------------------------------------------+\n+-----------------------------------------------------------------------------+\n\nA future-set story where robot boxing is a popular sport and centered on a \nstruggling promoter (Jackman) who thinks he's found a champion in a discarded \nrobot. During his hopeful rise to the top, he also discovers he has an \n11-year-old son who wants to know his father.\n\n+-----------------------------------------------------------------------------+\nShort Info :------------------------------------------------------------------+\n+-----------------------------------------------------------------------------+\n\nGenre:............: Action, Drama, Sci-Fi\nDirected by.......: Shawn Levy\nStarring..........: Hugh Jackman, Dakota Goyo, Evangeline Lilly, Anthony Mackie\nRelease Name......: Real.Steel.2011.DVDRip.XViD-FURiES\nRelease Group.....: FURiES\nSize..............: 2.14 GB\nVideo.............: 720x304 805 Kbps 23.976 fps\nAudio.............: MP3 320 Kbps\nLanguage:.........: English\nSubtitles.........: None\n\n+-----------------------------------------------------------------------------+\nFull Info :-------------------------------------------------------------------+\n+-----------------------------------------------------------------------------+\n   General\n      Complete name : Real.Steel.2011.DVDRip.XViD-FURiES.avi\n      Format : AVI\n      Format/Info : Audio Video Interleave\n      Format profile : OpenDML\n      File size : 2.15 GiB\n      Overall bit rate : 933 Kbps\n      Writing application : Lavf51.12.1\n   Video\n      Format : xvid\n      Codec ID : xvid\n      Duration : 5h 29mn\n      Bit rate : 805 Kbps\n      Width : 720 pixels\n      Height : 304 pixels\n      Display aspect ratio : 2.35:1\n      Frame rate : 23.976 fps\n      Resolution : 24 bits\n      Bits/(Pixel*Frame) : 0.153\n      Stream size : 1.85 GiB (86%)\n   Audio #1\n      ID : 1\n      Format : MPEG Audio\n      Format version : Version 1\n      Format profile : Layer 3\n      Codec ID : 55\n      Codec ID/Hint : MP3\n      Bit rate mode : Constant\n      Bit rate : 320 Kbps\n      Channel(s) : 2 channels\n      Sampling rate : 44.1 KHz\n      Resolution : 16 bits\n      Stream size : 290 MiB (13%)\n      Alignment : Aligned on interleaves\n      Interleave, duration : 26 ms (0.63 video frame)\n      Interleave, preload duration : 26 ms\n      Writing library : LAME3.97\n+-----------------------------------------------------------------------------+\nIMDB : -----------------------------------------------------------------------+\n+-----------------------------------------------------------------------------+\n &lt;a href=&quot;\nhttp://www.imdb.com/title/tt0433035/&quot; rel=&quot;nofollow&quot; target=&quot;_NEW&quot;&gt;\nhttp://www.imdb.com/title/tt0433035/&lt;/a&gt;\n\n+-----------------------------------------------------------------------------+\nScreens :---------------------------------------------------------------------+\n+-----------------------------------------------------------------------------+\n\n[img]http://img208.imageshack.us/img208/2711/rsteel.jpg[/img]\n[img]http://img707.imageshack.us/img707/7898/rsteell.jpg[/img]\n[img]http://img819.imageshack.us/img819/585/rsteelll.jpg[/img]\n[img]http://img27.imageshack.us/img27/2151/rsteellll.jpg[/img]\n\n+-----------------------------------------------------------------------------+\nGreetings and Respect :-------------------------------------------------------+\n+-----------------------------------------------------------------------------+\n\nViSiON, CM8, BHRG, NODLABS, AMIABLE, THUGLiNE, NeDiVx, Larceny, \nPRESTiGE, HD4U, LOST, PSYCHD  ...\n\n+-----------------------------------------------------------------------------+\n+----------------------------------FUSiON-------------------------------------+\n+-----------------------------------------------------------------------------+","torrent":{"xt":"urn:btih:dc5c5e9ebae0e947072ae542f6f919146fe81ac2","amp;dn":"Real.Steel.2011.DVDRip.XViD-FURiES","amp;tr":["udp%3A%2F%2Ftracker.openbittorrent.com%3A80","udp%3A%2F%2Fopen.demonii.com%3A1337","udp%3A%2F%2Ftracker.coppersurfer.tk%3A6969","udp%3A%2F%2Fexodus.desync.com%3A6969"],"infoHash":"dc5c5e9ebae0e947072ae542f6f919146fe81ac2","infoHashBuffer":{"type":"Buffer","data":[220,92,94,158,186,224,233,71,7,42,229,66,246,249,25,20,111,232,26,194]},"announce":[],"urlList":[]}}